# xmcd
#
# Track frame offsets: 
#        150
#        11681
#        28767
#        45134
#        60957
#        73868
#        89910
#        101682
#        120589
#        136622
#        157841
#        172104
#
# Disc length: 2467 seconds
#
# Revision: 0
# Processed by: cddbd v1.5.2PL0 Copyright (c) Steve Scherf et al.
# Submitted via: ExactAudioCopy v0.99pb5
#
DISCID=9509a10c
DTITLE=Twyce Daily - simple things
DYEAR=2012
DGENRE=Country
TTITLE0=treat me like that
TTITLE1=so lonely
TTITLE2=jackies song
TTITLE3=this train
TTITLE4=simple things
TTITLE5=non-returnable gifts
TTITLE6=love after love
TTITLE7=i don't want to be lonely
TTITLE8=i should have known better
TTITLE9=you aint fooling anyone
TTITLE10=i cant let you go
TTITLE11=guiding you home
EXTD=
EXTT0=
EXTT1=
EXTT2=
EXTT3=
EXTT4=
EXTT5=
EXTT6=
EXTT7=
EXTT8=
EXTT9=
EXTT10=
EXTT11=
PLAYORDER=
